<svg width="19" height="20" viewBox="0 0 19 20" fill="none" xmlns="http://www.w3.org/2000/svg">
<path d="M5.73926 6.0415C5.73926 5.88403 5.80181 5.73301 5.91316 5.62166C6.02451 5.51031 6.17554 5.44775 6.33301 5.44775H12.6663C12.8238 5.44775 12.9748 5.51031 13.0862 5.62166C13.1975 5.73301 13.2601 5.88403 13.2601 6.0415C13.2601 6.19898 13.1975 6.35 13.0862 6.46135C12.9748 6.5727 12.8238 6.63525 12.6663 6.63525H6.33301C6.17554 6.63525 6.02451 6.5727 5.91316 6.46135C5.80181 6.35 5.73926 6.19898 5.73926 6.0415ZM6.33301 8.21859C6.17554 8.21859 6.02451 8.28114 5.91316 8.39249C5.80181 8.50384 5.73926 8.65486 5.73926 8.81234C5.73926 8.96981 5.80181 9.12083 5.91316 9.23218C6.02451 9.34353 6.17554 9.40609 6.33301 9.40609H10.2913C10.4488 9.40609 10.5998 9.34353 10.7112 9.23218C10.8225 9.12083 10.8851 8.96981 10.8851 8.81234C10.8851 8.65486 10.8225 8.50384 10.7112 8.39249C10.5998 8.28114 10.4488 8.21859 10.2913 8.21859H6.33301Z" fill="black"/>
<path fill-rule="evenodd" clip-rule="evenodd" d="M7.87345 1.48975C6.79124 1.48975 5.91803 1.48975 5.23166 1.58237C4.51916 1.67737 3.91908 1.8832 3.44249 2.359C2.96591 2.83558 2.76166 3.43566 2.66587 4.14816C2.57324 4.83454 2.57324 5.70775 2.57324 6.78995V13.2104C2.57324 14.2926 2.57324 15.1658 2.66587 15.8522C2.76087 16.5647 2.9667 17.1647 3.44249 17.6413C3.91908 18.1179 4.51916 18.3222 5.23166 18.4187C5.91803 18.5106 6.79124 18.5106 7.87345 18.5106H11.1272C12.2094 18.5106 13.0826 18.5106 13.769 18.4187C14.4815 18.3222 15.0816 18.1179 15.5582 17.6413C16.0347 17.1647 16.239 16.5647 16.3356 15.8522C16.4274 15.1658 16.4274 14.2926 16.4274 13.2104V6.78995C16.4274 5.70775 16.4274 4.83454 16.3356 4.14816C16.239 3.43566 16.0347 2.83558 15.5582 2.359C15.0816 1.88241 14.4815 1.67816 13.769 1.58237C13.0826 1.48975 12.2094 1.48975 11.1272 1.48975H7.87345ZM4.28324 3.19895C4.50253 2.97966 4.8097 2.83716 5.39158 2.75879C5.98849 2.67883 6.78174 2.67725 7.91778 2.67725H11.0845C12.2205 2.67725 13.013 2.67883 13.6115 2.75879C14.1925 2.83716 14.4997 2.98045 14.719 3.19895C14.9383 3.41825 15.0808 3.72541 15.1592 4.30729C15.2391 4.9042 15.2407 5.69745 15.2407 6.8335V12.5731H6.16108C5.51349 12.5731 5.07174 12.5731 4.69253 12.6744C4.35935 12.7645 4.04415 12.9113 3.76074 13.1082V6.8335C3.76074 5.69745 3.76233 4.9042 3.84228 4.3065C3.92066 3.72541 4.06474 3.41825 4.28324 3.19895ZM3.78212 14.9473C3.79399 15.2275 3.81299 15.4737 3.84228 15.6938C3.92066 16.2749 4.06395 16.5821 4.28245 16.8014C4.50174 17.0207 4.80891 17.1632 5.39078 17.2415C5.9877 17.3215 6.78095 17.3231 7.91699 17.3231H11.0837C12.2197 17.3231 13.0122 17.3215 13.6107 17.2415C14.1917 17.1632 14.4989 17.0199 14.7182 16.8014C14.9375 16.5821 15.08 16.2749 15.1584 15.693C15.2241 15.2062 15.2367 14.5887 15.2391 13.7606H6.25291C5.47866 13.7606 5.20791 13.7653 4.9997 13.8215C4.72067 13.8964 4.46404 14.038 4.25192 14.2341C4.0398 14.4302 3.87857 14.675 3.78212 14.9473Z" fill="black"/>
</svg>
