<svg width="19" height="20" viewBox="0 0 19 20" fill="none" xmlns="http://www.w3.org/2000/svg">
<path d="M10.0938 6.04175C10.0938 5.88428 10.0312 5.73325 9.91984 5.6219C9.80849 5.51055 9.65747 5.448 9.5 5.448C9.34253 5.448 9.19151 5.51055 9.08016 5.6219C8.96881 5.73325 8.90625 5.88428 8.90625 6.04175V10.0001C8.90621 10.1007 8.93176 10.1998 8.98051 10.2878C9.02925 10.3759 9.09959 10.4502 9.18492 10.5036L11.5599 11.988C11.6935 12.0715 11.8547 12.0986 12.0082 12.0633C12.0842 12.0458 12.1561 12.0135 12.2196 11.9682C12.2831 11.923 12.3371 11.8657 12.3785 11.7995C12.4199 11.7334 12.4478 11.6598 12.4608 11.5829C12.4737 11.506 12.4713 11.4272 12.4538 11.3512C12.4363 11.2752 12.404 11.2034 12.3588 11.1399C12.3135 11.0763 12.2562 11.0223 12.1901 10.981L10.0938 9.67075V6.04175Z" fill="black"/>
<path fill-rule="evenodd" clip-rule="evenodd" d="M9.50033 3.07275C7.66315 3.07275 5.90122 3.80257 4.60214 5.10165C3.30306 6.40073 2.57324 8.16266 2.57324 9.99984C2.57324 11.837 3.30306 13.5989 4.60214 14.898C5.90122 16.1971 7.66315 16.9269 9.50033 16.9269C11.3375 16.9269 13.0994 16.1971 14.3985 14.898C15.6976 13.5989 16.4274 11.837 16.4274 9.99984C16.4274 8.16266 15.6976 6.40073 14.3985 5.10165C13.0994 3.80257 11.3375 3.07275 9.50033 3.07275ZM3.76074 9.99984C3.76074 9.2461 3.9092 8.49975 4.19764 7.80339C4.48608 7.10704 4.90886 6.47431 5.44183 5.94134C5.9748 5.40837 6.60752 4.98559 7.30388 4.69715C8.00024 4.40871 8.74659 4.26025 9.50033 4.26025C10.2541 4.26025 11.0004 4.40871 11.6968 4.69715C12.3931 4.98559 13.0259 5.40837 13.5588 5.94134C14.0918 6.47431 14.5146 7.10704 14.803 7.80339C15.0914 8.49975 15.2399 9.2461 15.2399 9.99984C15.2399 11.5221 14.6352 12.982 13.5588 14.0583C12.4824 15.1347 11.0226 15.7394 9.50033 15.7394C7.97809 15.7394 6.51821 15.1347 5.44183 14.0583C4.36545 12.982 3.76074 11.5221 3.76074 9.99984Z" fill="black"/>
</svg>
