<svg width="40" height="40" viewBox="0 0 40 40" fill="none" xmlns="http://www.w3.org/2000/svg">
<path d="M33.75 2.5H6.25C4.1825 2.5 2.5 4.1825 2.5 6.25V23.75C2.5 25.8175 4.1825 27.5 6.25 27.5H33.75C35.8175 27.5 37.5 25.8175 37.5 23.75V6.25C37.5 4.1825 35.8175 2.5 33.75 2.5ZM35 23.75C35 24.44 34.4387 25 33.75 25H6.25C5.56125 25 5 24.44 5 23.75V6.25C5 5.56125 5.56125 5 6.25 5H33.75C34.4387 5 35 5.56125 35 6.25V23.75ZM36.25 32.5H12.27C11.7525 31.0487 10.3775 30 8.75 30C7.1225 30 5.7475 31.0487 5.23 32.5H3.75C3.06 32.5 2.5 33.0588 2.5 33.75C2.5 34.4412 3.06 35 3.75 35H5.23C5.7475 36.4512 7.1225 37.5 8.75 37.5C10.3775 37.5 11.7525 36.4512 12.27 35H36.25C36.94 35 37.5 34.4412 37.5 33.75C37.5 33.0588 36.94 32.5 36.25 32.5ZM8.75 35C8.06125 35 7.5 34.44 7.5 33.75C7.5 33.06 8.06125 32.5 8.75 32.5C9.43875 32.5 10 33.06 10 33.75C10 34.44 9.43875 35 8.75 35ZM17.5 21.3188C17.0813 21.3188 16.6625 21.215 16.2838 21.0037C15.4925 20.5625 15.0013 19.7262 15.0013 18.82V11.1825C15.0013 10.2762 15.4938 9.43875 16.2838 8.99875C17.075 8.5575 18.0463 8.58 18.815 9.05625L24.9887 12.875C25.7312 13.335 26.1737 14.1288 26.1737 15.0013C26.1737 15.8738 25.7313 16.6675 24.99 17.1275L18.8162 20.9475C18.415 21.1962 17.9575 21.32 17.5013 21.32L17.5 21.3188ZM17.4937 11.1775L17.5 18.8188L23.6737 15L17.4937 11.1775Z" fill="#FFA722"/>
</svg>
