<svg width="38" height="40" viewBox="0 0 38 40" fill="none" xmlns="http://www.w3.org/2000/svg">
<path d="M8.95813 21.2552L12.7238 15.6068L17.7445 20.6276L24.0206 11.2135" stroke="#006AF1" stroke-width="2.46094" stroke-miterlimit="10" stroke-linecap="round" stroke-linejoin="round"/>
<path d="M19.3857 13.1447L24.0207 11.2135V16.2344" stroke="#006AF1" stroke-width="2.46094" stroke-miterlimit="10" stroke-linecap="round" stroke-linejoin="round"/>
<path d="M17.117 1.17188C25.7766 1.17188 32.8071 8.20234 32.8071 16.862L36.5727 22.5104C35.9451 23.7656 34.0623 25.0208 32.8071 25.0208C32.8071 25.0208 31.1494 29.9939 30.0337 33.3409C29.4857 34.9846 27.7086 35.8734 26.0644 35.3254C23.5486 34.4869 20.3515 33.4212 20.3515 33.4212L18.9998 38.8281H5.19255L7.70294 29.4116C3.89294 26.5478 1.42693 21.9908 1.42693 16.862C1.42693 8.20234 8.45739 1.17188 17.117 1.17188Z" stroke="#006AF1" stroke-width="2.46094" stroke-miterlimit="10" stroke-linecap="round" stroke-linejoin="round"/>
</svg>
