<svg width="76" height="95" viewBox="0 0 76 95" fill="none" xmlns="http://www.w3.org/2000/svg">
<path fill-rule="evenodd" clip-rule="evenodd" d="M19.0852 0.445062C18.8958 0.710224 18.4412 2.26329 18.0624 3.85427C17.2669 7.30138 14.9184 12.1833 12.494 15.3273C10.1833 18.3199 3.89995 24.3002 1.74077 25.5503C-1.81998 27.6716 0.566442 28.4291 4.54388 26.4593C7.34702 25.0578 12.7591 20.0576 15.5244 16.3122C17.4184 13.7742 20.108 8.66511 20.108 7.56658C20.108 7.26354 21.1308 9.04387 22.3429 11.544C24.9946 16.8851 27.381 19.9866 30.5961 22.1836C34.3083 24.7216 36.6569 25.4413 41.6902 25.6307C46.5768 25.858 50.3601 25.1004 54.7543 23.1307L57.065 22.07L56.1558 25.3277C55.5876 27.4869 55.2089 30.1006 55.0574 32.9748C54.868 36.8007 54.9436 37.7477 55.6633 40.0537C57.4437 45.9251 62.3256 50.5796 68.5001 52.2085L70.1289 52.6631L66.7954 55.2389C62.0604 58.9133 56.7998 64.5149 55.3604 67.4696C53.0497 72.2046 53.0117 75.5333 55.3224 80.0411L56.7619 82.8063L54.2997 82.8821C51.1178 82.9579 48.9207 83.4503 46.5011 84.6625C43.7737 86.064 40.4403 89.3975 39.4223 91.7035C38.6646 93.4838 38.6268 94.6581 39.3086 94.6581C39.4601 94.6581 41.1647 93.1808 43.0208 91.4004C44.9527 89.5443 47.2634 87.764 48.3619 87.2336C50.559 86.173 55.5165 85.4532 57.903 85.7942C59.1531 85.9836 59.6835 85.8699 60.2517 85.3775C61.3502 84.3926 61.1986 83.5971 59.3425 80.7561C56.3878 76.1347 56.0469 73.3742 57.9409 69.4725C59.9107 65.5329 65.9668 59.3632 71.6868 55.5372C76.2703 52.4689 76.1946 51.0295 71.3838 49.7416C67.4821 48.7188 65.8153 47.9991 63.4714 46.2187C57.8273 41.9382 56.5063 34.2911 59.6456 24.0682C60.4032 21.5681 61.0093 19.1059 60.9335 18.5756C60.782 17.174 59.1532 17.0603 57.5243 18.2725C54.6833 20.4317 49.0438 22.4015 44.3466 22.8939C39.9904 23.3485 34.6919 21.7575 31.0554 18.8786C27.9113 16.3785 24.4264 10.2845 22.7265 4.33725C22.2341 2.67052 21.5901 1.0038 21.287 0.624996C20.6431 -0.132611 19.5823 -0.208383 19.0899 0.435583L19.0852 0.445062Z" fill="#006AF1"/>
</svg>
