<svg width="61" height="62" viewBox="0 0 61 62" fill="none" xmlns="http://www.w3.org/2000/svg">
<path fill-rule="evenodd" clip-rule="evenodd" d="M37.2434 7.09243C36.792 7.08171 36.4129 7.31965 36.0368 7.9431C35.5302 8.7321 35.5503 8.90124 36.1566 9.49381C36.6919 10.0305 37.0215 10.0985 37.7252 9.88638C38.527 9.59825 38.6016 9.50364 38.6753 8.68027C38.7713 7.68278 38.2545 7.12245 37.2434 7.09243Z" fill="#006AF1"/>
<path fill-rule="evenodd" clip-rule="evenodd" d="M54.6228 21.5114C53.4827 21.8397 52.9389 22.676 53.1031 23.8784C53.2451 25.2549 54.115 25.902 55.3447 25.6059C56.6775 25.2762 57.0773 24.6714 56.8844 23.408C56.6765 22.0179 55.6546 21.1745 54.6228 21.5114Z" fill="#006AF1"/>
<path fill-rule="evenodd" clip-rule="evenodd" d="M37.1676 15.9963C36.3407 16.0731 35.9008 17.6045 35.5764 21.373C35.1032 26.5955 33.6821 33.4044 31.8102 39.2833C30.1381 44.5195 29.1719 48.2758 29.3876 48.829C30.1172 50.8218 34.7346 39.9008 36.6823 31.5905C38.2337 24.9993 38.8825 17.079 37.9602 16.3524C37.6764 16.1289 37.3131 15.9576 37.1676 15.9963Z" fill="#006AF1"/>
<path fill-rule="evenodd" clip-rule="evenodd" d="M51.7641 28.8356C51.0453 28.9209 50.4406 29.7859 48.4411 33.6863C45.9636 38.4367 44.598 40.6567 41.0935 45.4459C38.0362 49.6676 36.7266 52.157 37.3178 52.6228C37.507 52.7718 38.0129 52.5188 38.4987 52.0967C39.8529 50.8641 45.7597 43.2199 47.5625 40.3477C49.4634 37.3995 52.8543 30.9544 53.0026 30.0364C53.1337 29.3349 52.5274 28.7423 51.7664 28.8326L51.7641 28.8356Z" fill="#006AF1"/>
<path fill-rule="evenodd" clip-rule="evenodd" d="M17.7275 14.8958C16.7601 15.0535 16.3926 15.5688 16.5402 16.4516C16.8456 18.3018 19.7908 18.5524 20.1347 16.7537C20.298 15.9626 18.6949 14.7381 17.7275 14.8958Z" fill="#006AF1"/>
<path fill-rule="evenodd" clip-rule="evenodd" d="M19.9198 22.3322C19.4733 22.3637 18.5756 23.6494 18.4359 24.4591C18.029 26.6297 18.7252 47.0971 19.315 50.2828C19.6677 52.1703 20.0963 52.8912 20.562 52.2999C21.2513 51.4249 21.3853 43.9088 20.9106 30.7009C20.8725 28.7547 20.896 26.2438 21.0191 25.1144C21.1681 23.6605 21.0878 22.984 20.7094 22.6859C20.4256 22.4624 20.0623 22.2911 19.9168 22.3299L19.9198 22.3322Z" fill="#006AF1"/>
</svg>
