<svg width="54" height="78" viewBox="0 0 54 78" fill="none" xmlns="http://www.w3.org/2000/svg">
<path fill-rule="evenodd" clip-rule="evenodd" d="M37.0709 1.01741C31.23 -0.235329 22.5213 3.00543 15.486 9.0435C7.59394 15.8518 0.797369 26.9727 0.42541 33.6941C0.235022 37.1958 1.33604 40.0795 3.37966 41.4811C6.55806 43.6609 12.242 42.2361 16.2602 38.2773C17.9309 36.6325 20.0347 33.1936 20.5655 31.2085C21.0935 29.3299 20.8318 26.805 19.9905 25.7118C18.296 23.4836 14.5813 24.9384 15.0873 27.6346C15.2447 28.6216 15.8222 28.8345 16.6314 28.2897L17.3573 27.7588L17.3968 28.7024C17.4466 29.9485 16.4903 32.6668 15.5307 34.0661C12.6458 38.2186 7.25207 40.6467 4.73897 38.9232C1.04338 36.3886 3.10463 27.893 9.52584 19.2679C13.8035 13.5044 18.0898 9.57988 23.2698 6.67222C31.8315 1.90175 38.3756 2.12922 41.9746 7.38818C44.8711 11.6154 44.3564 20.2889 40.6784 28.8165L39.6774 31.1749L37.5446 31.8033C33.194 33.0765 29.692 35.5937 27.244 39.1631C25.1554 42.2083 25.1642 44.3055 27.251 45.2242C30.0636 46.4574 35.3288 42.688 39.6421 36.399L41.4061 33.8269L43.3144 34.1071C44.8662 34.3259 45.5191 34.5904 47.0455 35.6373C48.5719 36.6842 48.9985 37.1226 49.5883 38.3725C51.2641 42.0543 50.523 46.9402 47.6458 51.1354L46.4296 52.9087L45.0537 52.5897C43.2985 52.1939 40.3375 52.5497 38.8649 53.3728C37.2672 54.2222 35.8545 56.3357 35.929 57.7073C35.9889 58.5189 36.1996 58.8468 37.111 59.4718C39.0818 60.8235 41.8048 60.2333 45.0907 57.7137C46.8219 56.4059 46.8445 56.4214 47.6073 57.0531C49.5225 58.6958 50.506 61.6485 50.0852 64.4796C49.9365 65.3315 49.1695 67.5587 48.3419 69.4488C46.9412 72.7077 46.6594 73.9097 46.8767 75.9666C47.0467 77.8825 47.9589 77.1876 48.9117 74.4258C49.2132 73.5664 50.0284 71.7426 50.7544 70.3665C52.8686 66.3849 53.4376 63.6553 52.8311 60.632C52.4027 58.6138 51.5293 56.9861 50.0611 55.4292L48.8384 54.1492L50.0546 52.376C52.5979 48.6139 53.6621 44.4247 53.097 40.4422C52.6291 37.4804 51.4697 35.4732 49.16 33.6684C47.4555 32.3535 46.3328 31.8753 43.1765 31.1433C42.7697 31.0475 42.7921 30.8049 43.2425 29.8306C43.5546 29.1656 44.1805 27.3542 44.6762 25.7864C47.1266 17.7784 47.0594 11.272 44.485 6.79057C43.461 5.05955 43.0871 4.6573 40.9303 3.10323C39.0446 1.73512 38.2039 1.27077 37.0761 1.00977L37.0709 1.01741ZM35.4152 37.2819C31.6788 41.621 26.9605 44.3291 29.4434 40.7089C30.9335 38.5363 34.5895 35.6869 36.6971 35.0414C37.4758 34.8048 37.2776 35.1477 35.4152 37.2819ZM42.6189 56.3551C40.5111 57.846 37.7429 58.1844 38.6502 56.8615C38.8561 56.5613 39.4062 56.1306 39.8334 55.8737C40.7405 55.3961 43.3623 54.9535 43.7565 55.2238C43.9046 55.3254 43.3873 55.816 42.6206 56.3526L42.6189 56.3551Z" fill="#FFA722"/>
</svg>
