<svg width="40" height="40" viewBox="0 0 40 40" fill="none" xmlns="http://www.w3.org/2000/svg">
<path d="M14.2484 16.2074C16.0105 16.2074 17.6561 15.3202 18.8819 13.7091C20.0689 12.149 20.7227 10.084 20.7227 7.89461C20.7227 5.73399 20.0618 3.97329 18.8116 2.80274C17.6795 1.74297 16.1016 1.18274 14.2484 1.18274C12.3952 1.18274 10.8172 1.7429 9.68508 2.80274C8.43484 3.97321 7.77398 5.73399 7.77398 7.89461C7.77398 10.084 8.42773 12.149 9.61477 13.7091C10.8405 15.3202 12.4861 16.2074 14.2484 16.2074ZM14.2484 2.43274C17.5685 2.43274 19.4727 4.42352 19.4727 7.89461C19.4727 11.7891 17.1291 14.9574 14.2484 14.9574C11.3677 14.9574 9.02398 11.7891 9.02398 7.89461C9.02398 4.42352 10.9282 2.43274 14.2484 2.43274ZM37.7761 19.3338H31.4594V17.9248C31.4594 16.4586 30.2666 15.2658 28.8005 15.2658H22.7283C21.6365 15.2658 20.6967 15.9274 20.2877 16.8706C15.672 15.9595 11.0708 16.0789 6.60211 17.2281C2.74773 18.2188 0.625 20.3027 0.625 23.0957V34.9034C0.625 35.2486 0.904844 35.5284 1.25 35.5284H13.311V36.2916C13.311 37.6843 14.444 38.8173 15.8367 38.8173H35.6917C37.0844 38.8173 38.2174 37.6844 38.2174 36.2916V28.0307C38.985 27.3191 39.375 26.4915 39.375 25.5661V20.9327C39.375 20.0511 38.6577 19.3338 37.7761 19.3338ZM38.125 20.9327V25.5661C38.125 26.2049 37.8298 26.7448 37.1959 27.2651C37.0411 27.3922 36.863 27.5196 36.6665 27.6439C35.3219 28.4946 32.331 29.1188 28.6069 29.3344C28.1892 28.1675 27.0729 27.3302 25.7643 27.3302C24.4551 27.3302 23.3383 28.1683 22.9211 29.3359C19.202 29.1223 16.2113 28.4975 14.862 27.6438C14.6657 27.5195 14.4876 27.392 14.3327 27.2648C13.6988 26.7445 13.4036 26.2047 13.4036 25.5659V20.9325C13.4036 20.7402 13.5601 20.5837 13.7524 20.5837H18.3582V23.1255C18.3582 24.1434 19.1863 24.9715 20.2042 24.9715H31.3244C32.3423 24.9715 33.1704 24.1434 33.1704 23.1255V20.5837H37.7761C37.9684 20.5838 38.125 20.7403 38.125 20.9327ZM27.5327 30.3488C27.5327 31.3239 26.7394 32.1173 25.7643 32.1173C24.7891 32.1173 23.9958 31.3239 23.9958 30.3488C23.9958 29.3738 24.7891 28.5804 25.7643 28.5804C26.7394 28.5804 27.5327 29.3737 27.5327 30.3488ZM31.9204 20.5838V23.1256C31.9204 23.4543 31.653 23.7216 31.3244 23.7216H20.2042C19.8755 23.7216 19.6082 23.4543 19.6082 23.1256V20.5838H31.9204ZM28.4088 19.3338H23.1199V18.3164H28.4088V19.3338ZM22.7283 16.5158H28.8005C29.5773 16.5158 30.2094 17.1478 30.2094 17.9248V19.3338H29.6587V17.9248C29.6587 17.4514 29.2737 17.0664 28.8005 17.0664H22.7283C22.2549 17.0664 21.8698 17.4515 21.8698 17.9248V19.3338H21.3192V17.9248C21.3192 17.1478 21.9513 16.5158 22.7283 16.5158ZM7.78148 34.2784V25.8101C7.78148 25.4649 7.50164 25.1851 7.15648 25.1851C6.81133 25.1851 6.53148 25.4649 6.53148 25.8101V34.2784H1.875V23.0957C1.875 20.1705 5.03164 18.9223 6.91336 18.4387C11.2069 17.3345 15.6301 17.2219 20.0692 18.1015V19.3339H13.7523C12.8708 19.3339 12.1535 20.0512 12.1535 20.9327V25.5662C12.1535 26.4915 12.5434 27.319 13.3109 28.0306V34.2785H7.78148V34.2784ZM35.6917 37.5673H15.8367C15.1334 37.5673 14.561 36.995 14.561 36.2916V28.9108C16.1894 29.7663 19.1157 30.3626 22.7554 30.5784C22.8732 32.1359 24.1772 33.3673 25.7643 33.3673C27.3519 33.3673 28.6562 32.135 28.7733 30.5768C32.4166 30.3591 35.3427 29.7632 36.9674 28.9106V36.2915C36.9674 36.995 36.3952 37.5673 35.6917 37.5673Z" fill="#006AF1"/>
</svg>
