<svg width="35" height="35" viewBox="0 0 35 35" fill="none" xmlns="http://www.w3.org/2000/svg">
<circle cx="17.5" cy="17.5" r="17" stroke="white" stroke-opacity="0.8"/>
<path d="M17.9996 13.9001C17.1887 13.9001 16.3961 14.1406 15.7218 14.5911C15.0476 15.0416 14.5221 15.682 14.2117 16.4311C13.9014 17.1803 13.8202 18.0047 13.9784 18.8C14.1366 19.5953 14.5271 20.3259 15.1005 20.8993C15.6739 21.4727 16.4045 21.8632 17.1998 22.0214C17.9951 22.1796 18.8195 22.0984 19.5687 21.788C20.3178 21.4777 20.9582 20.9522 21.4087 20.278C21.8592 19.6037 22.0996 18.811 22.0996 18.0001C22.101 17.4613 21.9958 16.9276 21.7902 16.4296C21.5847 15.9315 21.2827 15.479 20.9017 15.0981C20.5207 14.7171 20.0682 14.4151 19.5702 14.2095C19.0722 14.004 18.5384 13.8988 17.9996 13.9001ZM17.9996 20.6701C17.4716 20.6701 16.9554 20.5135 16.5163 20.2202C16.0772 19.9268 15.735 19.5098 15.5329 19.0219C15.3308 18.534 15.2779 17.9972 15.381 17.4792C15.484 16.9613 15.7383 16.4856 16.1117 16.1122C16.4851 15.7388 16.9608 15.4845 17.4788 15.3814C17.9967 15.2784 18.5335 15.3313 19.0214 15.5334C19.5093 15.7355 19.9263 16.0777 20.2197 16.5168C20.5131 16.9558 20.6696 17.4721 20.6696 18.0001C20.6696 18.7083 20.3883 19.3874 19.8876 19.8881C19.3869 20.3888 18.7078 20.6701 17.9996 20.6701ZM23.2296 13.7301C23.2296 13.9279 23.171 14.1213 23.0611 14.2857C22.9512 14.4502 22.7951 14.5783 22.6123 14.654C22.4296 14.7297 22.2285 14.7495 22.0346 14.7109C21.8406 14.6723 21.6624 14.5771 21.5225 14.4372C21.3827 14.2974 21.2874 14.1192 21.2489 13.9252C21.2103 13.7312 21.2301 13.5302 21.3058 13.3475C21.3815 13.1647 21.5096 13.0085 21.6741 12.8987C21.8385 12.7888 22.0319 12.7301 22.2296 12.7301C22.4949 12.7301 22.7492 12.8355 22.9368 13.023C23.1243 13.2106 23.2296 13.4649 23.2296 13.7301ZM25.9396 14.7301C25.9698 13.4868 25.506 12.2821 24.6496 11.3801C24.2054 10.9507 23.6809 10.6131 23.1061 10.3866C22.5312 10.1601 21.9174 10.0492 21.2996 10.0601C19.9996 10.0001 15.9996 10.0001 14.6996 10.0601C13.4569 10.0332 12.2534 10.4966 11.3496 11.3501C10.4933 12.2521 10.0295 13.4568 10.0596 14.7001C9.99965 16.0001 9.99965 20.0001 10.0596 21.3001C10.0295 22.5435 10.4933 23.7481 11.3496 24.6501C12.2534 25.5036 13.4569 25.967 14.6996 25.9401C16.0196 26.0201 19.9796 26.0201 21.2996 25.9401C22.543 25.9703 23.7476 25.5064 24.6496 24.6501C25.506 23.7481 25.9698 22.5435 25.9396 21.3001C25.9996 20.0001 25.9996 16.0001 25.9396 14.7001V14.7301ZM24.2396 22.7301C24.1039 23.0741 23.8989 23.3865 23.6374 23.6479C23.376 23.9094 23.0636 24.1144 22.7196 24.2501C21.1672 24.564 19.5802 24.6716 17.9996 24.5701C16.4224 24.6707 14.8388 24.5631 13.2896 24.2501C12.9457 24.1144 12.6333 23.9094 12.3719 23.6479C12.1104 23.3865 11.9054 23.0741 11.7696 22.7301C11.3496 21.6701 11.4396 19.1701 11.4396 18.0101C11.4396 16.8501 11.3496 14.3401 11.7696 13.2901C11.9016 12.9428 12.1051 12.6271 12.367 12.3635C12.6288 12.0999 12.9432 11.8944 13.2896 11.7601C14.8388 11.4472 16.4224 11.3396 17.9996 11.4401C19.5802 11.3387 21.1672 11.4463 22.7196 11.7601C23.0636 11.8959 23.376 12.1009 23.6374 12.3623C23.8989 12.6238 24.1039 12.9362 24.2396 13.2801C24.6596 14.3401 24.5596 16.8401 24.5596 18.0001C24.5596 19.1601 24.6596 21.6701 24.2396 22.7201V22.7301Z" fill="white"/>
</svg>
