<svg width="40" height="40" viewBox="0 0 40 40" fill="none" xmlns="http://www.w3.org/2000/svg">
<mask id="mask0_1_112" style="mask-type:luminance" maskUnits="userSpaceOnUse" x="0" y="0" width="40" height="40">
<path d="M0 3.8147e-06H40V40H0V3.8147e-06Z" fill="white"/>
</mask>
<g mask="url(#mask0_1_112)">
<path d="M24.3367 25.2046C24.2579 25.0896 24.2948 24.931 24.4172 24.8643C24.7991 24.6564 25.1626 24.4203 25.5077 24.1561C25.9588 23.8106 26.3588 23.4193 26.7076 22.9822C27.0563 22.5452 27.3434 22.0647 27.5691 21.5408C27.761 21.0952 27.8941 20.6176 27.9685 20.108C27.9894 19.9652 27.8781 19.8367 27.7338 19.8367H24.6224C24.4917 19.8367 24.3858 19.7308 24.3858 19.6001C24.3858 19.4693 24.4917 19.3634 24.6224 19.3634H28.3238C28.4621 19.3634 28.5705 19.4816 28.5602 19.6195C28.5162 20.2112 28.4052 20.7672 28.2271 21.2876C28.0235 21.8824 27.7458 22.4331 27.394 22.9396C27.042 23.4461 26.6231 23.9099 26.1372 24.3313C25.7036 24.7071 25.2273 25.0497 24.7084 25.3589C24.602 25.4224 24.4641 25.3905 24.394 25.2882L24.3367 25.2046Z" fill="#006AF1"/>
<path d="M24.3367 25.2046C24.2579 25.0896 24.2948 24.931 24.4172 24.8643C24.7991 24.6564 25.1626 24.4203 25.5077 24.1561C25.9588 23.8106 26.3588 23.4193 26.7076 22.9822C27.0563 22.5452 27.3434 22.0647 27.5691 21.5408C27.761 21.0952 27.8941 20.6176 27.9685 20.108C27.9894 19.9652 27.8781 19.8367 27.7338 19.8367H24.6224C24.4917 19.8367 24.3858 19.7308 24.3858 19.6001C24.3858 19.4693 24.4917 19.3634 24.6224 19.3634H28.3238C28.4621 19.3634 28.5705 19.4816 28.5602 19.6195C28.5162 20.2112 28.4052 20.7672 28.2271 21.2876C28.0235 21.8824 27.7458 22.4331 27.394 22.9396C27.042 23.4461 26.6231 23.9099 26.1372 24.3313C25.7036 24.7071 25.2273 25.0497 24.7084 25.3589C24.602 25.4224 24.4641 25.3905 24.394 25.2882L24.3367 25.2046Z" stroke="#006AF1" stroke-width="1.36133" stroke-miterlimit="10" stroke-linecap="round" stroke-linejoin="round"/>
<path d="M31.2938 23.0556V27.42C31.2938 27.5507 31.1878 27.6566 31.0571 27.6566H30.9813C30.8506 27.6566 30.7447 27.5507 30.7447 27.42V18.7622C30.7447 18.6315 30.8506 18.5256 30.9813 18.5256H31.0571C31.1878 18.5256 31.2938 18.6315 31.2938 18.7622V22.1089C31.2938 22.2396 31.3997 22.3456 31.5304 22.3456H32.6902C32.8209 22.3456 32.9268 22.4515 32.9268 22.5822C32.9268 22.7129 32.8209 22.819 32.6902 22.819H31.5304C31.3997 22.819 31.2938 22.9249 31.2938 23.0556Z" fill="#006AF1"/>
<path d="M31.2938 23.0556V27.42C31.2938 27.5507 31.1878 27.6566 31.0571 27.6566H30.9813C30.8506 27.6566 30.7447 27.5507 30.7447 27.42V18.7622C30.7447 18.6315 30.8506 18.5256 30.9813 18.5256H31.0571C31.1878 18.5256 31.2938 18.6315 31.2938 18.7622V22.1089C31.2938 22.2396 31.3997 22.3456 31.5304 22.3456H32.6902C32.8209 22.3456 32.9268 22.4515 32.9268 22.5822C32.9268 22.7129 32.8209 22.819 32.6902 22.819H31.5304C31.3997 22.819 31.2938 22.9249 31.2938 23.0556Z" stroke="#006AF1" stroke-width="1.36133" stroke-miterlimit="10" stroke-linecap="round" stroke-linejoin="round"/>
<path d="M21.4177 14.8167H35.8027C37.471 14.8167 38.8234 16.1691 38.8234 17.8374V28.4527C38.8234 30.121 37.471 31.4735 35.8027 31.4735H33.207L31.6245 37.1107L28.6028 31.4735H21.4177C19.7494 31.4735 18.397 30.121 18.397 28.4527V17.8374C18.397 16.1691 19.7494 14.8167 21.4177 14.8167Z" stroke="#006AF1" stroke-width="2.40234" stroke-miterlimit="10" stroke-linecap="round" stroke-linejoin="round"/>
<path d="M9.94749 11.9244L11.18 8.47436C11.2548 8.26491 11.5511 8.26506 11.6249 8.47483C11.9333 9.35077 12.4946 10.9422 12.848 11.9244C12.9034 12.0783 12.7891 12.2401 12.6256 12.2401H10.1699C10.0066 12.2401 9.89257 12.0783 9.94749 11.9244ZM8.17734 15.4303H8.48515C8.58374 15.4303 8.67195 15.369 8.7064 15.2766L9.53117 13.0638C9.56562 12.9715 9.65382 12.9101 9.75249 12.9101H13.0487C13.148 12.9101 13.2366 12.9723 13.2705 13.0656L14.074 15.2749C14.1079 15.3682 14.1966 15.4303 14.2959 15.4303H14.6016C14.7669 15.4303 14.8811 15.2649 14.8224 15.1104L11.8056 7.15741C11.7708 7.06569 11.6829 7.00499 11.5848 7.00499H11.178C11.0797 7.00499 10.9917 7.06585 10.957 7.1578L7.9564 15.1108C7.89812 15.2653 8.01226 15.4303 8.17734 15.4303Z" fill="#006AF1"/>
<path d="M9.94749 11.9244L11.18 8.47436C11.2548 8.26491 11.5511 8.26506 11.6249 8.47483C11.9333 9.35077 12.4946 10.9422 12.848 11.9244C12.9034 12.0783 12.7891 12.2401 12.6256 12.2401H10.1699C10.0066 12.2401 9.89257 12.0783 9.94749 11.9244ZM8.17734 15.4303H8.48515C8.58374 15.4303 8.67195 15.369 8.7064 15.2766L9.53117 13.0638C9.56562 12.9715 9.65382 12.9101 9.75249 12.9101H13.0487C13.148 12.9101 13.2366 12.9723 13.2705 13.0656L14.074 15.2749C14.1079 15.3682 14.1966 15.4303 14.2959 15.4303H14.6016C14.7669 15.4303 14.8811 15.2649 14.8224 15.1104L11.8056 7.15741C11.7708 7.06569 11.6829 7.00499 11.5848 7.00499H11.178C11.0797 7.00499 10.9917 7.06585 10.957 7.1578L7.9564 15.1108C7.89812 15.2653 8.01226 15.4303 8.17734 15.4303Z" stroke="#006AF1" stroke-width="1.36133" stroke-miterlimit="10" stroke-linecap="round" stroke-linejoin="round"/>
<path d="M21.419 14.8167H21.6031V5.91011C21.6031 4.24183 20.2508 2.88941 18.5824 2.88941H4.19752C2.52924 2.88941 1.17682 4.24183 1.17682 5.91011V16.5255C1.17682 18.1939 2.52924 19.5463 4.19752 19.5463H6.79307L8.37565 25.1835L11.3974 19.5463H18.3983V17.8374C18.3983 16.1691 19.7507 14.8167 21.419 14.8167Z" stroke="#006AF1" stroke-width="2.40234" stroke-miterlimit="10" stroke-linecap="round" stroke-linejoin="round"/>
</g>
</svg>
