<svg width="35" height="35" viewBox="0 0 35 35" fill="none" xmlns="http://www.w3.org/2000/svg">
<circle cx="17.5" cy="17.5" r="17" stroke="white" stroke-opacity="0.8"/>
<path fill-rule="evenodd" clip-rule="evenodd" d="M18.5104 14.796V16.493C18.8657 15.9517 19.3556 15.5119 19.9319 15.2167C20.5083 14.9215 21.1514 14.781 21.7984 14.809C25.2534 14.809 26.0004 16.969 26.0004 19.779V25.5H22.8004V20.428C22.8004 19.218 22.5564 17.662 20.6724 17.662C18.8454 17.662 18.5334 18.979 18.5334 20.338V25.5H15.3434V14.796H18.5104ZM13.2004 12.106C13.2 12.423 13.106 12.7328 12.9302 12.9967C12.7545 13.2605 12.5047 13.4665 12.2124 13.589C11.9201 13.7105 11.5983 13.7423 11.2879 13.6803C10.9775 13.6183 10.6926 13.4654 10.4694 13.241C10.2457 13.0165 10.0935 12.7308 10.0318 12.42C9.97003 12.1091 10.0016 11.787 10.1225 11.494C10.2433 11.2011 10.4481 10.9504 10.7111 10.7735C10.9741 10.5967 11.2835 10.5015 11.6004 10.5C11.811 10.5 12.0195 10.5416 12.214 10.6224C12.4086 10.7031 12.5852 10.8215 12.7339 10.9707C12.8825 11.12 13.0002 11.297 13.0803 11.4919C13.1603 11.6867 13.2011 11.8954 13.2004 12.106Z" fill="white"/>
<path d="M13.2 14.8091H10V25.5001H13.2V14.8091Z" fill="white"/>
</svg>
