<svg width="40" height="40" viewBox="0 0 40 40" fill="none" xmlns="http://www.w3.org/2000/svg">
<g clip-path="url(#clip0_1_82)">
<path d="M35.6564 29.1061C35.6564 29.1061 35.6564 29.1058 35.6561 29.1058C35.6561 29.1058 35.6561 29.1058 35.6558 29.1055L32.3422 25.7919C32.3419 25.7919 32.3419 25.7916 32.3419 25.7916C32.3419 25.7916 32.3419 25.7916 32.3416 25.7916L26.5216 19.9713C29.1748 17.1744 30.7104 15.1163 32.4048 12.5305C37.1582 10.8627 37.7493 8.87633 39.0066 4.64415C39.2685 3.76219 39.5657 2.76274 39.9411 1.62352C40.0796 1.20359 39.9695 0.740948 39.6567 0.428448C39.3439 0.115337 38.8818 0.00547408 38.4613 0.144024C37.1496 0.576458 36.015 0.885601 35.0137 1.15843C33.0737 1.6873 31.5417 2.10478 30.2838 3.03526C29.0259 3.96574 28.1454 5.31309 27.3752 7.5009C24.7891 9.19493 22.7313 10.7306 19.9341 13.3841L11.6281 5.0778C11.5368 4.98655 11.4172 4.90355 11.3098 4.85136L1.68211 0.194988C1.23289 -0.0219917 0.695782 0.0686455 0.343304 0.421429C-0.00947952 0.773907 -0.100117 1.31132 0.116863 1.75993L4.77324 11.3879C4.82359 11.4917 4.90538 11.6119 4.99968 11.7062L13.4222 20.1288C10.8706 22.9474 8.24309 26.0229 6.01225 28.8229C4.0399 31.2985 2.47007 33.4476 1.47184 35.0378C0.893841 35.9592 0.500469 36.6971 0.270062 37.2937C0.122967 37.6749 -0.325031 38.8348 0.464764 39.6243C1.08824 40.2478 1.98057 40.133 2.79966 39.8059C3.39079 39.57 4.12199 39.169 5.03447 38.5806C6.62016 37.558 8.68925 36.0089 11.1841 33.9767C13.9117 31.7551 16.9632 29.1006 19.7958 26.5021L32.3419 39.0485C33.0273 39.7336 33.9273 40.0763 34.8276 40.0763C35.7278 40.0763 36.6281 39.7336 37.3132 39.0485L38.9703 37.3913C40.3409 36.0208 40.3409 33.7906 38.9703 32.42L35.6564 29.1061ZM28.1991 31.5915L31.5134 28.2773L33.1708 29.9344L29.8562 33.2486L28.1991 31.5915ZM23.2278 19.9917L19.9136 16.6775C23.5773 13.0139 25.86 11.3122 28.2266 9.74516L30.1602 11.6788C28.5934 14.0454 26.8915 16.3281 23.2278 19.9917ZM35.6302 3.41948C36.0739 3.29832 36.5433 3.17045 37.0434 3.02794C36.944 3.35875 36.85 3.6746 36.7602 3.97673C35.6006 7.87962 35.271 8.98863 31.9879 10.1919L29.715 7.91899C30.9103 4.70579 32.1216 4.37559 35.6302 3.41948ZM8.80552 6.24357L6.16545 8.88365L3.69261 3.77073L8.80552 6.24357ZM7.48533 10.8777L10.7995 7.56346L18.2565 15.0204C17.3297 15.9472 16.2308 17.0853 15.0079 18.4003L7.48533 10.8777ZM10.5963 31.4273C6.75596 34.6051 4.33836 36.2997 2.96354 37.1072C3.21745 36.6583 3.57664 36.0745 4.08537 35.3216C5.16234 33.7286 6.70988 31.6785 8.56047 29.393C11.5875 25.6549 15.1684 21.5909 18.2748 18.353L21.5555 21.6336C18.1619 24.9093 14.1058 28.5229 10.5963 31.4273ZM24.8849 21.6488L29.8562 26.6202L26.542 29.9344L21.5149 24.9069C22.8223 23.6789 23.9554 22.5784 24.8849 21.6488ZM37.3132 35.7342L35.6561 37.3913C35.1993 37.8482 34.4562 37.8482 33.999 37.3913L31.5134 34.9057L34.8276 31.5915L37.3132 34.0771C37.7701 34.534 37.7701 35.2774 37.3132 35.7342Z" fill="#006AF1"/>
</g>
<defs>
<clipPath id="clip0_1_82">
<rect width="40" height="40" fill="white"/>
</clipPath>
</defs>
</svg>
