<svg width="40" height="40" viewBox="0 0 40 40" fill="none" xmlns="http://www.w3.org/2000/svg">
<g clip-path="url(#clip0_1_73)">
<path d="M37.1875 1.43469H2.8125C2.06684 1.43554 1.35196 1.73213 0.824699 2.25939C0.297436 2.78665 0.000847778 3.50153 0 4.24719L0 28.9347C0.000847778 29.6804 0.297436 30.3952 0.824699 30.9225C1.35196 31.4498 2.06684 31.7463 2.8125 31.7472H15.6821L12.8281 36.6903C12.7184 36.8803 12.6607 37.0959 12.6607 37.3153C12.6607 37.5348 12.7184 37.7503 12.8281 37.9403C12.9379 38.1304 13.0957 38.2882 13.2857 38.3979C13.4757 38.5076 13.6913 38.5653 13.9107 38.5653H26.0892C26.3086 38.5653 26.5242 38.5076 26.7142 38.3979C26.9043 38.2882 27.0621 38.1304 27.1718 37.9403C27.2815 37.7503 27.3393 37.5348 27.3393 37.3153C27.3393 37.0959 27.2815 36.8803 27.1718 36.6903L24.3179 31.7472H37.1875C37.9332 31.7463 38.648 31.4498 39.1753 30.9225C39.7026 30.3952 39.9992 29.6804 40 28.9347V4.24719C39.9992 3.50153 39.7026 2.78665 39.1753 2.25939C38.648 1.73213 37.9332 1.43554 37.1875 1.43469ZM2.8125 3.93469H37.1875C37.27 3.93578 37.3489 3.96906 37.4073 4.02743C37.4656 4.0858 37.4989 4.16465 37.5 4.24719V25.2628H2.5V4.24719C2.50109 4.16465 2.53437 4.0858 2.59274 4.02743C2.65111 3.96906 2.72996 3.93578 2.8125 3.93469ZM23.9241 36.0653H16.0759L18.5689 31.7472H21.4311L23.9241 36.0653ZM37.1875 29.2472H2.8125C2.72996 29.2461 2.65111 29.2128 2.59274 29.1545C2.53437 29.0961 2.50109 29.0172 2.5 28.9347V27.7628H37.5V28.9347C37.4989 29.0172 37.4656 29.0961 37.4073 29.1545C37.3489 29.2128 37.27 29.2461 37.1875 29.2472ZM24.427 19.255L29.03 14.652L24.427 10.049C24.1949 9.81409 24.0652 9.4969 24.0662 9.16669C24.0672 8.83649 24.1988 8.5201 24.4323 8.2866C24.6658 8.05311 24.9822 7.9215 25.3124 7.92049C25.6426 7.91949 25.9598 8.04919 26.1947 8.28125L31.6816 13.7681C31.7977 13.8842 31.8898 14.022 31.9526 14.1737C32.0154 14.3253 32.0478 14.4879 32.0478 14.652C32.0478 14.8162 32.0154 14.9787 31.9526 15.1304C31.8898 15.2821 31.7977 15.4199 31.6816 15.5359L26.1947 21.0229C26.0786 21.139 25.9408 21.231 25.7892 21.2939C25.6375 21.3567 25.4749 21.389 25.3108 21.389C25.1466 21.389 24.9841 21.3567 24.8324 21.2938C24.6808 21.231 24.543 21.1389 24.4269 21.0229C24.3108 20.9068 24.2188 20.769 24.156 20.6173C24.0931 20.4657 24.0608 20.3031 24.0608 20.139C24.0608 19.9748 24.0932 19.8123 24.156 19.6606C24.2188 19.509 24.3109 19.3711 24.427 19.255ZM8.31844 15.5363C8.08403 15.3018 7.95234 14.9839 7.95234 14.6524C7.95234 14.3209 8.08403 14.0029 8.31844 13.7685L13.8053 8.28125C14.0397 8.04684 14.3577 7.91515 14.6892 7.91516C15.0207 7.91516 15.3387 8.04687 15.5731 8.28129C15.8075 8.51572 15.9392 8.83367 15.9392 9.16519C15.9392 9.49671 15.8075 9.81465 15.573 10.0491L10.9701 14.652L15.573 19.2551C15.6903 19.3709 15.7834 19.5088 15.8472 19.6607C15.911 19.8127 15.944 19.9757 15.9445 20.1405C15.945 20.3053 15.913 20.4686 15.8501 20.6209C15.7873 20.7733 15.695 20.9117 15.5784 21.0282C15.4619 21.1447 15.3235 21.2371 15.1711 21.2999C15.0188 21.3627 14.8555 21.3948 14.6908 21.3943C14.526 21.3938 14.3629 21.3607 14.2109 21.297C14.059 21.2332 13.9211 21.14 13.8053 21.0228L8.31844 15.5363ZM16.6948 22.4503L20.8846 6.22883C20.9675 5.90784 21.1745 5.63291 21.4601 5.46454C21.6015 5.38117 21.7579 5.32647 21.9205 5.30356C22.083 5.28065 22.2485 5.28998 22.4074 5.33102C22.5664 5.37206 22.7157 5.444 22.8468 5.54274C22.9779 5.64148 23.0883 5.76508 23.1717 5.90648C23.2551 6.04789 23.3098 6.20433 23.3327 6.36688C23.3556 6.52943 23.3463 6.69489 23.3052 6.85383L19.1154 23.0753C19.0325 23.3963 18.8255 23.6712 18.5399 23.8396C18.2543 24.008 17.9136 24.056 17.5926 23.9731C17.2716 23.8902 16.9967 23.6832 16.8283 23.3977C16.6599 23.1121 16.6119 22.7713 16.6948 22.4503Z" fill="#006AF1"/>
</g>
<defs>
<clipPath id="clip0_1_73">
<rect width="40" height="40" fill="white"/>
</clipPath>
</defs>
</svg>
