<svg width="40" height="40" viewBox="0 0 40 40" fill="none" xmlns="http://www.w3.org/2000/svg">
<path d="M38.5875 31.725L33.4625 22.8375C34.4375 20.85 35.0125 18.6125 35.0125 16.25C35.0125 7.975 28.2875 1.25 20.0125 1.25C11.7375 1.25 5.00003 7.975 5.00003 16.25C5.00003 18.6125 5.56253 20.85 6.55002 22.8375L1.42503 31.725C1.20003 32.125 1.20003 32.6125 1.45003 33.0125C1.70003 33.4125 2.12503 33.625 2.58753 33.6L7.92503 33.25L10.3 38.05C10.5 38.4625 10.925 38.725 11.375 38.75H11.4125C11.8625 38.75 12.275 38.5125 12.5 38.125L16.6875 30.8625C17.75 31.1 18.8625 31.25 20 31.25C21.1375 31.25 22.25 31.1125 23.3125 30.8625L27.5 38.125C27.725 38.5125 28.1375 38.75 28.5875 38.75H28.625C29.0875 38.7375 29.5 38.4625 29.7 38.05L32.075 33.25L37.4125 33.6C37.8625 33.6125 38.3125 33.4 38.55 33.0125C38.7875 32.625 38.8 32.125 38.575 31.725H38.5875ZM11.5 34.85L9.80003 31.4C9.57503 30.95 9.10003 30.6875 8.60003 30.7125L4.76253 30.9625L8.05003 25.2625C9.65003 27.375 11.775 29.0625 14.25 30.1L11.5 34.85ZM7.50003 16.25C7.50003 9.3625 13.1125 3.75 20 3.75C26.8875 3.75 32.5 9.3625 32.5 16.25C32.5 23.1375 26.8875 28.75 20 28.75C13.1125 28.75 7.50003 23.1375 7.50003 16.25ZM31.4125 30.7125C30.9 30.6875 30.4375 30.95 30.2125 31.4L28.5125 34.85L25.7625 30.1C28.2375 29.0625 30.375 27.375 31.9625 25.2625L35.25 30.9625L31.4125 30.7125Z" fill="#FFA722"/>
<path d="M23.575 14.8501C24.075 14.1376 24.375 13.2751 24.375 12.3501C24.375 9.9376 22.4125 7.9751 20 7.9751C17.5875 7.9751 15.625 9.9376 15.625 12.3501C15.625 13.2876 15.925 14.1376 16.425 14.8501C14.1125 15.9126 12.5 18.2376 12.5 20.9376C12.5 22.9126 14.1125 24.5376 16.1 24.5376H23.9125C25.9 24.5376 27.5125 22.9251 27.5125 20.9376C27.5125 18.2376 25.9 15.9126 23.5875 14.8501H23.575ZM20 10.4751C21.0375 10.4751 21.875 11.3126 21.875 12.3501C21.875 13.3876 21.0375 14.2251 20 14.2251C18.9625 14.2251 18.125 13.3876 18.125 12.3501C18.125 11.3126 18.9625 10.4751 20 10.4751ZM23.9 22.0376H16.0875C15.4875 22.0376 14.9875 21.5501 14.9875 20.9376C14.9875 18.6126 16.875 16.7126 19.2125 16.7126H20.775C23.1 16.7126 25 18.6001 25 20.9376C25 21.5376 24.5125 22.0376 23.9 22.0376Z" fill="#FFA722"/>
</svg>
