<svg width="43" height="43" viewBox="0 0 43 43" fill="none" xmlns="http://www.w3.org/2000/svg">
<path d="M18.404 6.63813C18.5911 6.93741 18.7173 7.27061 18.7756 7.61869C18.8339 7.96677 18.823 8.32293 18.7437 8.66682C18.6643 9.01071 18.518 9.3356 18.3131 9.62294C18.1082 9.91029 17.8487 10.1545 17.5494 10.3415C14.2784 12.3789 11.6799 15.3345 10.0781 18.8394C11.6957 18.7041 13.3164 19.0603 14.7283 19.8612C16.1401 20.6621 17.2773 21.8706 17.9911 23.3284C18.7049 24.7863 18.9621 26.4257 18.7289 28.032C18.4957 29.6384 17.7831 31.137 16.6842 32.3317C15.5854 33.5265 14.1515 34.3617 12.5702 34.7282C10.9889 35.0946 9.3338 34.9753 7.82145 34.3857C6.3091 33.7961 5.00994 32.7637 4.09393 31.4236C3.17792 30.0836 2.68774 28.4982 2.6875 26.875V26.8024C2.69042 26.5944 2.69938 26.3865 2.71437 26.1789C2.73856 25.7758 2.78694 25.2114 2.881 24.5181C3.06913 23.1394 3.43731 21.2393 4.18175 19.1054C5.66525 14.8323 8.66987 9.55138 14.7006 5.78351C14.9999 5.59645 15.3331 5.47018 15.6812 5.4119C16.0293 5.35362 16.3854 5.36446 16.7293 5.44382C17.0732 5.52318 17.3981 5.6695 17.6854 5.87442C17.9728 6.07934 18.2169 6.33885 18.404 6.63813ZM37.2165 6.63813C37.4035 6.93741 37.5298 7.27061 37.5881 7.61869C37.6464 7.96677 37.6355 8.32293 37.5562 8.66682C37.4768 9.01071 37.3305 9.3356 37.1256 9.62294C36.9207 9.91029 36.6612 10.1545 36.3619 10.3415C33.0909 12.3789 30.4924 15.3345 28.8906 18.8394C30.5082 18.7041 32.1289 19.0603 33.5408 19.8612C34.9526 20.6621 36.0898 21.8706 36.8036 23.3284C37.5174 24.7863 37.7746 26.4257 37.5414 28.032C37.3082 29.6384 36.5956 31.137 35.4967 32.3317C34.3979 33.5265 32.964 34.3617 31.3827 34.7282C29.8014 35.0946 28.1463 34.9753 26.634 34.3857C25.1216 33.7961 23.8224 32.7637 22.9064 31.4236C21.9904 30.0836 21.5002 28.4982 21.5 26.875V26.8024C21.5029 26.5944 21.5119 26.3865 21.5269 26.1789C21.5511 25.7758 21.5994 25.2114 21.6935 24.5181C21.8816 23.1394 22.2498 21.2393 22.9942 19.1054C24.4777 14.8323 27.4824 9.55138 33.5131 5.78351C33.8124 5.59645 34.1456 5.47018 34.4937 5.4119C34.8418 5.35362 35.1979 5.36446 35.5418 5.44382C35.8857 5.52318 36.2106 5.6695 36.4979 5.87442C36.7853 6.07934 37.0294 6.33885 37.2165 6.63813Z" fill="#006AF1"/>
</svg>
