<svg width="36" height="40" viewBox="0 0 36 40" fill="none" xmlns="http://www.w3.org/2000/svg">
<path d="M34.2992 23.8167C34.9389 22.923 34.733 21.6799 33.8393 21.0403C33.2948 20.6505 32.5908 20.5608 31.9659 20.8013C31.7205 20.5347 31.4719 20.268 31.2072 20.0013C35.0032 16.158 36.7105 12.4013 35.3245 10.0013C33.9385 7.60133 29.8312 7.20133 24.6052 8.56733C23.1725 3.35667 20.7732 0 18.0012 0C15.2292 0 12.8279 3.35933 11.4012 8.57133C10.5345 8.34333 9.67921 8.14933 8.86788 8.01733C4.71255 7.342 1.80855 8.04733 0.68388 10C-0.22212 11.57 0.14388 13.7073 1.70988 16.1933C1.07238 17.0863 1.27946 18.327 2.17238 18.9646C2.71655 19.3531 3.41955 19.4418 4.04321 19.2007C4.28788 19.4673 4.53588 19.734 4.79988 20.0007C1.00121 23.8433 -0.705453 27.6 0.680547 30C1.54721 31.4953 3.46255 32.2153 6.04988 32.2153C7.85938 32.1807 9.6573 31.9183 11.4012 31.4347C12.8299 36.6433 15.2292 40 18.0012 40C20.7732 40 23.1745 36.6407 24.6045 31.4287C25.4712 31.6567 26.3265 31.8507 27.1379 31.9827C28.0772 32.1418 29.0279 32.2253 29.9805 32.232C32.6145 32.232 34.4692 31.4693 35.3139 30C36.2239 28.432 35.8592 26.2987 34.2992 23.8167ZM32.6679 22C33.036 22 33.3345 22.2985 33.3345 22.6667C33.3345 23.0348 33.036 23.3333 32.6679 23.3333C32.2997 23.3333 32.0012 23.0348 32.0012 22.6667C32.0012 22.2985 32.2997 22 32.6679 22ZM24.3725 14.5333C23.6012 14.0307 22.8139 13.538 22.0012 13.0667C21.1885 12.5953 20.3659 12.1653 19.5472 11.75C20.8865 11.1594 22.258 10.6446 23.6552 10.208C23.9755 11.6352 24.215 13.0793 24.3725 14.5333ZM18.0012 1.33333C19.9772 1.33333 22.0372 4.162 23.3345 8.926C21.5085 9.49133 19.7236 10.1818 17.9925 10.9927C16.2668 10.1854 14.4877 9.49733 12.6679 8.93333C13.9632 4.16467 16.0245 1.33333 18.0012 1.33333ZM12.3432 10.2273C13.7365 10.658 15.1047 11.1663 16.4412 11.75C15.6332 12.1607 14.8199 12.6011 14.0012 13.0713C13.1825 13.5416 12.3923 14.0271 11.6305 14.528C11.7875 13.0823 12.0254 11.6464 12.3432 10.2273ZM3.75121 17.8513C3.6338 17.9477 3.48646 18.0002 3.33455 18C2.96638 18 2.66788 17.7015 2.66788 17.3333C2.66646 17.1243 2.76571 16.9273 2.93455 16.804C2.94055 16.7993 2.94855 16.7987 2.95521 16.794C3.06388 16.7104 3.19746 16.6656 3.33455 16.6667C3.70271 16.6683 3.99988 16.9682 3.99821 17.3363C3.9973 17.5363 3.90663 17.7254 3.75121 17.8513ZM4.34971 15.6098C4.04205 15.4288 3.69155 15.3333 3.33455 15.3333C3.14713 15.3333 2.96063 15.3595 2.78055 15.4113C1.54655 13.426 1.21055 11.754 1.83921 10.6667C2.65521 9.24933 5.13721 8.764 8.64788 9.33333C9.42588 9.45933 10.2405 9.64467 11.0732 9.86667C10.6538 11.7207 10.3625 13.6013 10.2012 15.4953C8.64021 16.5837 7.1558 17.7781 5.75855 19.07C5.51988 18.8293 5.28055 18.5887 5.05855 18.348C5.61896 17.3962 5.30163 16.1702 4.34971 15.6098ZM10.0759 22.7667C8.90446 21.9043 7.78146 20.9779 6.71188 19.992C7.78071 19.007 8.90405 18.0829 10.0765 17.224C10.0263 18.1303 10.0012 19.0556 10.0012 20C10.0012 20.9413 10.0279 21.8667 10.0759 22.7667ZM1.83521 29.3333C0.84788 27.6227 2.27188 24.4253 5.74521 20.9213C7.14746 22.2121 8.6353 23.4066 10.1985 24.4967C10.3609 26.4012 10.6547 28.2921 11.0779 30.156C6.30321 31.414 2.82321 31.044 1.83521 29.3333ZM11.6299 25.4667C12.4012 25.97 13.1885 26.4627 14.0012 26.9333C14.8139 27.404 15.6365 27.8347 16.4552 28.25C15.1159 28.8406 13.7444 29.3554 12.3472 29.792C12.027 28.3648 11.7875 26.9208 11.6299 25.4667ZM18.0012 38.6667C16.0252 38.6667 13.9645 35.8373 12.6679 31.0727C14.4936 30.5078 16.2781 29.8173 18.0085 29.006C19.7348 29.8136 21.5143 30.5021 23.3345 31.0667C22.0392 35.8353 19.9779 38.6667 18.0012 38.6667ZM23.6592 29.7727C22.2658 29.3421 20.8977 28.8338 19.5612 28.25C20.3692 27.8393 21.1825 27.3989 22.0012 26.9287C22.8199 26.4584 23.6101 25.9729 24.3719 25.472C24.215 26.9178 23.977 28.3536 23.6592 29.7727ZM24.5299 23.766C23.5345 24.4453 22.4679 25.118 21.3345 25.7733C20.2012 26.428 19.0901 27.016 18.0012 27.5373C16.8919 27.004 15.7752 26.416 14.6679 25.776C13.5605 25.136 12.4945 24.4593 11.4719 23.76C11.3832 22.56 11.3345 21.3067 11.3345 20C11.3345 18.6933 11.3832 17.4353 11.4725 16.234C12.4679 15.5547 13.5345 14.882 14.6679 14.2267C15.8012 13.5713 16.9139 12.9867 18.0012 12.4627C19.1105 12.996 20.2272 13.584 21.3345 14.224C22.4419 14.864 23.5085 15.5393 24.5305 16.2387C24.6192 17.4387 24.6679 18.6933 24.6679 20C24.6679 21.3067 24.6192 22.5647 24.5299 23.766ZM34.1672 10.6667C35.1545 12.3773 33.7305 15.5747 30.2572 19.0787C28.855 17.7879 27.3671 16.5934 25.8039 15.5033C25.6415 13.5989 25.3477 11.7079 24.9245 9.844C29.6992 8.586 33.1792 8.956 34.1672 10.6667ZM25.9265 17.232C27.0993 18.0938 28.2239 19.0191 29.2952 20.004C28.225 20.9904 27.1 21.9159 25.9259 22.776C25.9761 21.8703 26.0012 20.9449 26.0012 20C26.0012 19.058 25.9745 18.1333 25.9265 17.232ZM34.1632 29.3333C33.3465 30.75 30.8659 31.2353 27.3545 30.6667C26.5765 30.5407 25.7619 30.3553 24.9292 30.1333C25.3486 28.2793 25.64 26.3987 25.8012 24.5047C27.3628 23.4158 28.8476 22.2208 30.2452 20.928C30.4892 21.174 30.7179 21.4193 30.9445 21.6653C30.7648 21.9685 30.6693 22.3143 30.6679 22.6667C30.6679 23.7712 31.5633 24.6667 32.6679 24.6667C32.8514 24.6641 33.0335 24.6358 33.2092 24.5827C34.4439 26.5687 34.7919 28.246 34.1632 29.3333Z" fill="#006AF1"/>
</svg>
