<svg width="19" height="20" viewBox="0 0 19 20" fill="none" xmlns="http://www.w3.org/2000/svg">
<path d="M16.625 16.3333C16.625 14.9542 15.3029 13.7817 13.4583 13.3463M11.875 16.3333C11.875 14.5837 9.74858 13.1666 7.125 13.1666C4.50142 13.1666 2.375 14.5837 2.375 16.3333M11.875 10.7916C12.7149 10.7916 13.5203 10.458 14.1142 9.86409C14.708 9.27023 15.0417 8.46477 15.0417 7.62492C15.0417 6.78507 14.708 5.97961 14.1142 5.38575C13.5203 4.79188 12.7149 4.45825 11.875 4.45825M7.125 10.7916C6.28515 10.7916 5.47969 10.458 4.88583 9.86409C4.29196 9.27023 3.95833 8.46477 3.95833 7.62492C3.95833 6.78507 4.29196 5.97961 4.88583 5.38575C5.47969 4.79188 6.28515 4.45825 7.125 4.45825C7.96485 4.45825 8.77031 4.79188 9.36417 5.38575C9.95804 5.97961 10.2917 6.78507 10.2917 7.62492C10.2917 8.46477 9.95804 9.27023 9.36417 9.86409C8.77031 10.458 7.96485 10.7916 7.125 10.7916Z" stroke="black" stroke-width="1.58333" stroke-linecap="round" stroke-linejoin="round"/>
</svg>
